<?xml version="1.0" encoding="UTF-8" standalone="no"?>
<svg
   width="48"
   height="48"
   version="1.1"
   viewBox="0 0 48 48"
   id="svg29"
   sodipodi:docname="discord-square.svg"
   inkscape:version="1.1 (c68e22c387, 2021-05-23)"
   xmlns:inkscape="http://www.inkscape.org/namespaces/inkscape"
   xmlns:sodipodi="http://sodipodi.sourceforge.net/DTD/sodipodi-0.dtd"
   xmlns="http://www.w3.org/2000/svg"
   xmlns:svg="http://www.w3.org/2000/svg"
   xmlns:rdf="http://www.w3.org/1999/02/22-rdf-syntax-ns#"
   xmlns:cc="http://creativecommons.org/ns#"
   xmlns:dc="http://purl.org/dc/elements/1.1/">
  <sodipodi:namedview
     id="namedview31"
     pagecolor="#ffffff"
     bordercolor="#999999"
     borderopacity="1"
     inkscape:pageshadow="0"
     inkscape:pageopacity="0"
     inkscape:pagecheckerboard="0"
     showgrid="false"
     inkscape:zoom="14.229167"
     inkscape:cx="23.578331"
     inkscape:cy="23.964861"
     inkscape:window-width="1920"
     inkscape:window-height="1015"
     inkscape:window-x="0"
     inkscape:window-y="0"
     inkscape:window-maximized="1"
     inkscape:current-layer="svg29" />
  <metadata
     id="metadata2">
    <rdf:RDF>
      <cc:Work
         rdf:about="">
        <dc:format>image/svg+xml</dc:format>
        <dc:type
           rdf:resource="http://purl.org/dc/dcmitype/StillImage" />
        <dc:title />
      </cc:Work>
    </rdf:RDF>
  </metadata>
  <defs
     id="defs9">
    <linearGradient
       id="a"
       x1="1"
       x2="1"
       y1="47"
       y2="1"
       gradientUnits="userSpaceOnUse">
      <stop
         style="stop-color:#627ad6;stop-opacity:1"
         id="stop4" />
      <stop
         offset="1"
         style="stop-color:#7287da;stop-opacity:1"
         id="stop6" />
    </linearGradient>
  </defs>
  <path
     d="m1 43v0.25c0 2.216 1.784 4 4 4h38c2.216 0 4-1.784 4-4v-0.25c0 2.216-1.784 4-4 4h-38c-2.216 0-4-1.784-4-4zm0 0.5v0.5c0 2.216 1.784 4 4 4h38c2.216 0 4-1.784 4-4v-0.5c0 2.216-1.784 4-4 4h-38c-2.216 0-4-1.784-4-4z"
     style="opacity:.02"
     id="path11" />
  <path
     d="m1 43.25v0.25c0 2.216 1.784 4 4 4h38c2.216 0 4-1.784 4-4v-0.25c0 2.216-1.784 4-4 4h-38c-2.216 0-4-1.784-4-4z"
     style="opacity:.05"
     id="path13" />
  <path
     d="m1 43v0.25c0 2.216 1.784 4 4 4h38c2.216 0 4-1.784 4-4v-0.25c0 2.216-1.784 4-4 4h-38c-2.216 0-4-1.784-4-4z"
     style="opacity:.1"
     id="path15" />
  <rect
     x="1"
     y="1"
     width="46"
     height="46"
     rx="4"
     style="fill:url(#a)"
     id="rect17" />
  <g
     transform="translate(0,-1004.4)"
     id="g27">
    <path
       d="m1 1043.4v4c0 2.216 1.784 4 4 4h38c2.216 0 4-1.784 4-4v-4c0 2.216-1.784 4-4 4h-38c-2.216 0-4-1.784-4-4z"
       style="opacity:.1"
       id="path25" />
  </g>
  <g
     id="g46"
     transform="translate(-29.895315,13.944074)">
    <path
       d="m 51.356315,0.707926 c 0,0 -3.05,-0.067 -6.256,2.338 0,0 -3.205,5.811 -3.205,12.979 0,0 1.869,3.227 6.789,3.383 0,0 0.825,-1 1.492,-1.846 -2.827,-0.846 -3.895,-2.627 -3.895,-2.627 0.345,0.228 0.565,0.356 0.912,0.557 0.553,0.319 1.113,0.556 1.625,0.756 0.913,0.356 1.998,0.718 3.27,0.959 1.669,0.316 3.626,0.409 5.766,0.02 1.044,-0.19 2.116,-0.489 3.229,-0.957 0.779,-0.289 1.646,-0.713 2.559,-1.314 0,0 -1.111,1.826 -4.03,2.65 0.668,0.846 1.469,1.803 1.469,1.803 4.925,-0.159 6.814,-3.383 6.814,-3.383 0,-7.168 -3.205,-12.979 -3.205,-12.979 -3.206,-2.404 -6.256,-2.338 -6.256,-2.338 l -0.311,0.357 c 3.784,1.158 5.543,2.826 5.543,2.826 -2.315,-1.269 -4.583,-1.918 -6.701,-2.137 -1.703,-0.176 -3.365,-0.08 -4.875,0.09 -0.777,0.087 -2.671,0.356 -5.05,1.402 -0.824,0.378 -1.313,0.645 -1.313,0.645 0,0 1.847,-1.758 5.854,-2.916 l -0.223,-0.268 m -0.713,8.35 c 1.243,0 2.25,1.119 2.25,2.5 0,1.381 -1.01,2.5 -2.25,2.5 -1.243,0 -2.25,-1.119 -2.25,-2.5 0,-1.381 1.01,-2.5 2.25,-2.5 z m 8.5,0 c 1.243,0 2.25,1.119 2.25,2.5 0,1.381 -1.01,2.5 -2.25,2.5 -1.243,0 -2.25,-1.119 -2.25,-2.5 0,-1.381 1.01,-2.5 2.25,-2.5 z"
       style="opacity:0.1;fill:#000000"
       id="path29" />
    <path
       d="m 50.356315,-0.293074 c 0,0 -3.05,-0.067 -6.256,2.338 0,0 -3.205,5.811 -3.205,12.979 0,0 1.869,3.227 6.789,3.383 0,0 0.825,-1 1.492,-1.846 -2.827,-0.846 -3.895,-2.627 -3.895,-2.627 0.345,0.228 0.565,0.356 0.912,0.557 0.553,0.319 1.113,0.556 1.625,0.756 0.913,0.356 1.998,0.718 3.27,0.959 1.669,0.316 3.626,0.409 5.766,0.02 1.044,-0.19 2.116,-0.489 3.229,-0.957 0.779,-0.289 1.646,-0.713 2.559,-1.314 0,0 -1.111,1.826 -4.03,2.65 0.668,0.846 1.469,1.803 1.469,1.803 4.925,-0.159 6.814,-3.383 6.814,-3.383 0,-7.168 -3.205,-12.979 -3.205,-12.979 -3.206,-2.404 -6.256,-2.338 -6.256,-2.338 l -0.311,0.357 c 3.784,1.158 5.543,2.826 5.543,2.826 -2.315,-1.269 -4.583,-1.918 -6.701,-2.137 -1.703,-0.176 -3.365,-0.08 -4.875,0.09 -0.777,0.087 -2.671,0.356 -5.05,1.402 -0.824,0.378 -1.313,0.645 -1.313,0.645 0,0 1.847,-1.758 5.854,-2.916 l -0.223,-0.268 m -0.713,8.35 c 1.243,0 2.25,1.119 2.25,2.5 0,1.381 -1.01,2.5 -2.25,2.5 -1.243,0 -2.25,-1.119 -2.25,-2.5 0,-1.381 1.01,-2.5 2.25,-2.5 z m 8.5,0 c 1.243,0 2.25,1.119 2.25,2.5 0,1.381 -1.01,2.5 -2.25,2.5 -1.243,0 -2.25,-1.119 -2.25,-2.5 0,-1.381 1.01,-2.5 2.25,-2.5"
       style="fill:#f9f9f9"
       id="path31" />
  </g>
</svg>
