<?xml version="1.0" standalone="no"?><!-- Generator: Gravit.io --><svg xmlns="http://www.w3.org/2000/svg" xmlns:xlink="http://www.w3.org/1999/xlink" style="isolation:isolate" viewBox="0 0 48 48" width="48" height="48"><defs><clipPath id="_clipPath_TRMnm8lpDbFdclwIDLZISV85lB0QmbAF"><rect width="48" height="48"/></clipPath></defs><g clip-path="url(#_clipPath_TRMnm8lpDbFdclwIDLZISV85lB0QmbAF)"><g opacity="0.02"><path d=" M 1 43 L 1 43.25 C 1 45.466 2.784 47.25 5 47.25 L 43 47.25 C 45.216 47.25 47 45.466 47 43.25 L 47 43 C 47 45.216 45.216 47 43 47 L 5 47 C 2.784 47 1 45.216 1 43 Z  M 1 43.5 L 1 44 C 1 46.216 2.784 48 5 48 L 43 48 C 45.216 48 47 46.216 47 44 L 47 43.5 C 47 45.716 45.216 47.5 43 47.5 L 5 47.5 C 2.784 47.5 1 45.716 1 43.5 Z " fill="rgb(0,0,0)"/></g><g opacity="0.05"><path d=" M 1 43.25 L 1 43.5 C 1 45.716 2.784 47.5 5 47.5 L 43 47.5 C 45.216 47.5 47 45.716 47 43.5 L 47 43.25 C 47 45.466 45.216 47.25 43 47.25 L 5 47.25 C 2.784 47.25 1 45.466 1 43.25 Z " fill="rgb(0,0,0)"/></g><g opacity="0.1"><path d=" M 1 43 L 1 43.25 C 1 45.466 2.784 47.25 5 47.25 L 43 47.25 C 45.216 47.25 47 45.466 47 43.25 L 47 43 C 47 45.216 45.216 47 43 47 L 5 47 C 2.784 47 1 45.216 1 43 Z " fill="rgb(0,0,0)"/></g><defs><linearGradient id="_lgradient_0" x1="0" y1="-0.02169108695652174" x2="0.9999999999999999" y2="-0.02169108695652174"><stop offset="0%" style="stop-color:#EC9B28"/><stop offset="100%" style="stop-color:#EEA53A"/></linearGradient></defs><path d="M 1 43 L 1 5 C 1 2.792 2.792 1 5 1 L 43 1 C 45.208 1 47 2.792 47 5 L 47 43 C 47 45.208 45.208 47 43 47 L 5 47 C 2.792 47 1 45.208 1 43 Z" style="stroke:none;fill:url(#_lgradient_0);stroke-miterlimit:10;"/><g opacity="0.1"><path d=" M 1 39 L 1 43 C 1 45.216 2.784 47 5 47 L 43 47 C 45.216 47 47 45.216 47 43 L 47 39 C 47 41.216 45.216 43 43 43 L 5 43 C 2.784 43 1 41.216 1 39 Z " fill="rgb(0,0,0)"/></g><path d=" M 23.737 26.375 C 23.583 25.112 23.491 23.757 23.46 22.217 C 24.446 21.94 25.554 21.724 26.817 21.662 C 25.955 23.634 24.877 25.112 23.737 26.375 Z  M 17.515 30.133 C 16.622 30.133 16.313 29.671 16.313 28.839 C 16.313 27.515 17.484 25.574 19.363 24.157 C 19.455 26.006 19.64 27.792 19.917 29.425 C 19.024 29.887 18.192 30.133 17.515 30.133 Z  M 28.265 16.179 C 28.234 16.611 28.142 17.257 28.019 17.904 L 27.834 17.904 C 26.386 17.904 24.938 18.058 23.583 18.366 C 23.645 17.627 23.706 16.888 23.768 16.149 C 27.557 15.995 31.654 15.594 34.518 15.07 L 34.487 10.85 C 31.007 11.682 27.957 12.052 24.353 12.175 C 24.415 11.744 24.507 11.312 24.6 10.912 C 24.723 10.388 24.846 9.834 25.062 9.125 L 20.287 9.002 C 20.318 9.618 20.256 10.45 20.195 11.035 L 20.071 12.267 L 19.332 12.267 C 17.145 12.267 14.465 11.99 13.387 11.836 L 13.51 16.056 C 15.02 16.118 17.392 16.272 19.178 16.272 L 19.671 16.272 C 19.548 17.381 19.455 18.551 19.394 19.691 C 15.112 21.755 11.97 25.913 11.97 29.825 C 11.97 33.214 14.003 34.631 16.375 34.631 C 17.946 34.631 19.455 34.199 20.842 33.583 C 20.965 33.953 21.057 34.322 21.18 34.631 L 25.431 33.368 C 25.185 32.659 24.969 31.951 24.754 31.211 C 26.941 29.394 29.312 26.344 30.945 22.34 C 32.608 23.11 33.44 24.465 33.44 26.036 C 33.44 28.501 31.623 31.55 25.524 32.228 L 27.957 36.078 C 35.658 34.939 38.03 30.534 38.03 26.252 C 38.03 22.617 35.658 19.876 32.208 18.644 C 32.424 18.089 32.608 17.535 32.732 17.227 L 28.265 16.179 Z " fill-rule="evenodd" fill="rgb(0,0,0)" fill-opacity="0.1"/><path d=" M 23.737 25.295 C 23.583 24.032 23.491 22.677 23.46 21.136 C 24.446 20.859 25.554 20.643 26.817 20.582 C 25.955 22.553 24.877 24.032 23.737 25.295 Z  M 17.515 29.053 C 16.622 29.053 16.313 28.591 16.313 27.759 C 16.313 26.435 17.484 24.494 19.363 23.077 C 19.455 24.925 19.64 26.712 19.917 28.344 C 19.024 28.806 18.192 29.053 17.515 29.053 Z  M 28.265 15.099 C 28.234 15.53 28.142 16.177 28.019 16.824 L 27.834 16.824 C 26.386 16.824 24.938 16.978 23.583 17.286 C 23.645 16.547 23.706 15.807 23.768 15.068 C 27.557 14.914 31.654 14.514 34.518 13.99 L 34.487 9.77 C 31.007 10.602 27.957 10.971 24.353 11.094 C 24.415 10.663 24.507 10.232 24.6 9.832 C 24.723 9.308 24.846 8.753 25.062 8.045 L 20.287 7.922 C 20.318 8.538 20.256 9.369 20.195 9.955 L 20.071 11.187 L 19.332 11.187 C 17.145 11.187 14.465 10.91 13.387 10.756 L 13.51 14.976 C 15.02 15.037 17.392 15.191 19.178 15.191 L 19.671 15.191 C 19.548 16.3 19.455 17.471 19.394 18.61 C 15.112 20.674 11.97 24.833 11.97 28.745 C 11.97 32.133 14.003 33.55 16.375 33.55 C 17.946 33.55 19.455 33.119 20.842 32.503 C 20.965 32.872 21.057 33.242 21.18 33.55 L 25.431 32.287 C 25.185 31.579 24.969 30.87 24.754 30.131 C 26.941 28.314 29.312 25.264 30.945 21.26 C 32.608 22.03 33.44 23.385 33.44 24.956 C 33.44 27.42 31.623 30.47 25.524 31.147 L 27.957 34.998 C 35.658 33.858 38.03 29.453 38.03 25.172 C 38.03 21.537 35.658 18.795 32.208 17.563 C 32.424 17.009 32.608 16.454 32.732 16.146 L 28.265 15.099 Z " fill-rule="evenodd" fill="rgb(232,232,232)"/></g></svg>